#!OML:ASF X:\für Bonn\!DataBase\2005_08_12_Daniel\c3d\Daniel.ASF
:FULLY-SPECIFIED
:DEGREES
1571
root -5.60443 18.5032 -2.5718 -95.7208 -83.3776 93.9481
lowerback 10.661 -4.88079 -7.24067
upperback 3.47259 -7.52118 -3.54503
thorax -1.86841 -3.83334 1.21928
lowerneck -11.1717 4.02767 -1.52744
upperneck 2.05358 5.62986 -2.04423
head 2.61091 2.68441 -0.0770392
rclavicle 2.24627e-014 2.22639e-014
rhumerus -27.693 30.5218 -92.8751
rradius 79.1576
rwrist -20.4806
rhand -30.1693 35.3516
rfingers 7.12502
rthumb -3.48095 5.40027
lclavicle 2.24627e-014 2.22639e-014
lhumerus -50.536 -12.3619 90.2109
lradius 85.0609
lwrist 44.1279
lhand -11.3045 -4.70757
lfingers 7.12502
lthumb 14.7272 24.7493
rfemur -21.8369 26.853 7.74801
rtibia 27.8003
rfoot -11.5519 -25.1297
rtoes -5.10577
lfemur 9.19052 -9.20143 -27.6974
ltibia 30.6383
lfoot 7.15238 16.1013
ltoes -0.523023
1572
root -5.56539 18.6382 -2.56944 -100.252 -82.7301 98.6473
lowerback 10.7002 -4.01677 -7.58101
upperback 3.42325 -6.45919 -4.04359
thorax -2.03635 -3.30701 0.792379
lowerneck -11.4324 3.50904 -1.50271
upperneck 2.41471 4.92359 -1.42589
head 2.76495 2.35414 0.0880675
rclavicle -3.55825e-014 -5.24792e-014
rhumerus -25.5478 31.4715 -90.7433
rradius 79.4348
rwrist -23.1115
rhand -30.4241 35.3693
rfingers 7.12502
rthumb -3.72703 5.4221
lclavicle -3.55825e-014 -5.24792e-014
lhumerus -52.938 -13.5715 90.1022
lradius 85.6095
lwrist 43.9047
lhand -11.2037 -4.88084
lfingers 7.12502
lthumb 14.8243 24.5689
rfemur -21.3897 24.0285 8.33982
rtibia 29.154
rfoot -10.6903 -23.9523
rtoes -7.04884
lfemur 7.52831 -9.13014 -28.326
ltibia 30.9816
lfoot 6.70201 13.5986
ltoes 0.317492
1573
root -5.52406 18.7566 -2.56753 -104.073 -82.1431 102.583
lowerback 10.7916 -3.16449 -7.81292
upperback 3.39081 -5.40834 -4.50927
thorax -2.21356 -2.7877 0.335766
lowerneck -11.6491 2.97158 -1.54638
upperneck 2.72869 4.19602 -0.84789
head 2.90027 2.01313 0.24828
rclavicle -5.08889e-014 8.74653e-015
rhumerus -23.3151 32.1689 -88.394
rradius 79.6901
rwrist -25.6587
rhand -30.572 35.1621
rfingers 7.12502
rthumb -3.86983 5.21749
lclavicle -5.08889e-014 8.74653e-015
lhumerus -55.343 -14.9522 89.9609
lradius 86.2223
lwrist 43.8155
lhand -11.155 -5.05517
lfingers 7.12502
lthumb 14.8712 24.3911
rfemur -20.9744 20.499 9.06993
rtibia 30.7889
rfoot -7.79786 -22.3575
rtoes -10.0797
lfemur 5.96664 -9.17387 -28.8635
ltibia 31.211
lfoot 5.9852 11.4369
ltoes 0.635108
1574
root -5.48189 18.8634 -2.5663 -107.703 -81.7554 106.288
lowerback 10.9493 -2.33367 -7.81816
upperback 3.37073 -4.36612 -4.90961
thorax -2.41513 -2.27238 -0.183289
lowerneck -11.8354 2.45639 -1.48387
upperneck 3.00384 3.48429 -0.393174
head 3.02693 1.67803 0.348988
rclavicle -1.37161e-014 -7.95139e-015
rhumerus -20.9836 32.6258 -85.8556
rradius 79.8494
rwrist -28.0722
rhand -30.6469 34.8835
rfingers 7.12502
rthumb -3.94218 4.94027
lclavicle -1.37161e-014 -7.95139e-015
lhumerus -57.763 -16.5159 89.7989
lradius 86.8906
lwrist 43.7774
lhand -11.1214 -5.18182
lfingers 7.12502
lthumb 14.9036 24.2621
rfemur -20.5301 17.0019 9.94045
rtibia 32.5187
rfoot -4.19697 -20.5912
rtoes -12.956
lfemur 4.38673 -9.3505 -29.1613
ltibia 31.4976
lfoot 5.01705 9.52028
ltoes 1.21412
1575
root -5.43998 18.9574 -2.56696 -111.057 -81.5366 109.671
lowerback 11.1563 -1.554 -7.66553
upperback 3.36798 -3.37416 -5.23721
thorax -2.61182 -1.78252 -0.718487
lowerneck -11.9456 1.9676 -1.38256
upperneck 3.21988 2.80218 -0.0330974
head 3.1241 1.35582 0.41068
rclavicle -1.39149e-015 -4.77083e-015
rhumerus -18.5371 32.8201 -83.1776
rradius 79.9227
rwrist -30.3048
rhand -30.6357 34.4422
rfingers 7.12502
rthumb -3.93135 4.49868
lclavicle -1.39149e-015 -4.77083e-015
lhumerus -60.1694 -18.1541 89.6171
lradius 87.605
lwrist 43.7348
lhand -10.9544 -5.19764
lfingers 7.12502
lthumb 15.0644 24.2342
rfemur -19.9791 14.055 10.8355
rtibia 34.2182
rfoot -0.874681 -18.7383
rtoes -13.5443
lfemur 2.70641 -9.68187 -29.2377
ltibia 31.9712
lfoot 3.81615 8.03401
ltoes 1.40055
